<svg width="27" height="30" viewBox="0 0 27 30" fill="none" xmlns="http://www.w3.org/2000/svg">
<path d="M18.1801 10.371L11.9328 16.6184L8.80912 13.4947M25.9893 12.1906C25.9893 22.4492 18.23 27.0484 14.9405 28.5373L14.9364 28.5391C14.5904 28.6957 14.417 28.7742 14.0239 28.8417C13.7749 28.8845 13.2159 28.8845 12.9669 28.8417C12.5722 28.774 12.397 28.6952 12.0483 28.5373C8.75882 27.0484 0.999939 22.4492 0.999939 12.1906V5.99818C0.999939 4.24876 0.999939 3.3734 1.3404 2.70521C1.63988 2.11745 2.11739 1.63994 2.70515 1.34046C3.37334 1 4.2487 1 5.99812 1H20.9917C22.7412 1 23.6146 1 24.2828 1.34046C24.8706 1.63994 25.3497 2.11745 25.6492 2.70521C25.9893 3.37274 25.9893 4.24705 25.9893 5.99305V12.1906Z" stroke="#00C0FE" stroke-width="2" stroke-linecap="round" stroke-linejoin="round"/>
</svg>
