<svg width="379" height="81" viewBox="0 0 379 81" fill="none" xmlns="http://www.w3.org/2000/svg">
<g clip-path="url(#clip0_649_363)">
<path fill-rule="evenodd" clip-rule="evenodd" d="M310.122 9.69468H278.595L264.962 32.1828L270.561 9.69468H237.54L219.811 80.8469H252.832L259.318 54.8183L261.913 80.8469H295.798L295.727 80.0818C295.116 79.7265 294.537 79.337 294 78.9107C289.614 75.4388 289.033 70.1805 290.57 64.5257L293.301 53.5353L292.317 42.7627L298.974 32.0385C299.053 30.8961 299.25 29.725 299.55 28.5376L299.552 28.5295L301.348 21.249V21.245C302.58 16.3099 305.548 12.4123 310.122 9.69468ZM304.476 23.1737L304.772 21.9774C305.655 18.4374 307.575 15.5822 310.537 13.412L304.476 23.1737ZM295.313 75.5318L294.27 64.1372L293.985 65.2884C292.757 69.7822 293.2 73.1966 295.313 75.5318ZM25.9386 47.2319C25.1712 45.8038 25.2529 44.1103 26.1545 42.7514L48.1137 9.65253H17.7279L0 80.8049H50.9307C58.6832 80.8049 64.5015 79.3788 68.3855 76.5265C72.2693 73.6601 75.0381 68.8969 76.6917 62.237C78.1937 56.2374 78.2772 51.6849 76.942 48.5797C75.6071 45.4605 73.3465 43.5356 70.1604 42.805C73.832 42.0321 77.0179 40.3532 79.7185 37.7677C82.419 35.1684 84.3535 31.5293 85.5216 26.8504C86.2498 23.9139 86.5001 21.3637 86.2726 19.1999C86.0602 17.0361 85.2787 15.2447 83.9287 13.8256C82.5935 12.3924 80.6516 11.3386 78.1027 10.6642C75.5538 9.98975 72.4059 9.65253 68.6584 9.65253H62.3414L46.5085 67.2712C45.3667 71.4262 39.2628 72.0293 37.2003 68.1908L25.9386 47.2319ZM29.1479 44.4548L52.2371 9.65253H58.7161L43.1036 66.4687C42.7654 67.6998 40.9568 67.8786 40.3456 66.7412L29.0839 45.7823C28.8566 45.3592 28.8807 44.8574 29.1479 44.4548ZM219.129 65.1664L222.749 50.6453H189.795L187.633 59.2863C186.875 62.3353 185.577 63.8599 183.742 63.8599C182.907 63.8599 182.331 63.5436 182.012 62.9114C181.709 62.2651 181.777 61.0568 182.217 59.2863L189.499 30.1172C189.939 28.347 190.47 27.1456 191.092 26.5132C191.729 25.867 192.465 25.5438 193.3 25.5438C194.164 25.5438 194.764 25.8528 195.098 26.4712C195.431 27.0893 195.371 28.3047 194.915 30.1172L193.527 35.7234H226.479L228.893 25.9653C230.44 19.769 230.083 15.3641 227.823 12.7507C226.685 11.3597 224.842 10.341 222.293 9.69468C219.743 9.03429 216.611 8.7041 212.894 8.7041H181.398C177.893 8.7041 174.79 9.03429 172.09 9.69468C169.405 10.341 167.106 11.3737 165.194 12.7928C163.283 14.212 161.728 16.0034 160.529 18.1672C159.331 20.317 158.345 22.9163 157.571 25.9653L147.808 65.1664C146.488 70.4637 147.065 74.3978 149.538 76.9691C152.011 79.5264 156.638 80.8049 163.42 80.8049H194.915C198.496 80.8049 201.659 80.4957 204.405 79.8776C207.166 79.2592 209.541 78.3039 211.528 77.0111C213.516 75.7046 215.109 74.0817 216.307 72.1426C217.521 70.1897 218.462 67.8642 219.129 65.1664ZM76.6235 80.8469L94.3513 9.69468H157.093L152.86 26.7241H122.912L120.408 36.7141H147.558L143.325 53.7434H116.175L113.672 63.8177H143.621L139.365 80.8469H76.6235Z" fill="#121212"/>
<path d="M58.2034 0.659706L29.1482 44.4546C28.881 44.8571 28.8569 45.359 29.0842 45.782L40.3459 66.7409C40.957 67.8782 42.7657 67.6995 43.1039 66.4685L60.8974 1.7148C61.3156 0.193354 59.0909 -0.677917 58.2034 0.659706Z" fill="#121212"/>
<path d="M310.892 79.9151C304.079 79.9151 299.211 78.756 296.282 76.4376C293.353 74.1193 292.588 70.4028 293.983 65.2884L297.17 52.4742L296.282 43.3693L330.122 56.0149V57.7642C329.408 60.6446 329.962 62.0848 331.784 62.0848C332.648 62.0848 333.415 61.7616 334.081 61.1154C334.75 60.469 335.317 59.2114 335.789 57.3427C336.047 56.2889 336.199 55.4249 336.242 54.7503C336.304 54.0619 336.229 53.4998 336.017 53.0643C335.804 52.6147 335.431 52.2284 334.901 51.9052C334.386 51.568 333.619 51.2166 332.602 50.8514L312.939 43.4538C308.025 41.6131 304.908 39.6531 303.588 37.5734C302.312 35.4658 302.108 32.698 302.972 29.2696L304.769 21.9774C305.833 17.72 308.397 14.4532 312.461 12.177C316.543 9.9008 321.99 8.7627 328.803 8.7627H361.004C367.829 8.7627 372.709 9.9008 375.635 12.177C378.564 14.4532 379.498 17.72 378.434 21.9774L376.319 30.5342L362.097 30.0705H344.57C345.239 27.3447 342.615 25.0966 340.659 25.0966C339.96 25.0966 339.294 25.3284 338.656 25.7921C338.033 26.2558 337.602 26.9653 337.358 27.9206C337.238 28.4265 337.185 28.8411 337.2 29.1643C337.229 29.4875 337.374 29.7895 337.632 30.0705C337.889 30.3374 338.307 30.6395 338.884 30.9767C339.46 31.2999 340.302 31.6722 341.409 32.0937L364.417 41.1354C365.949 41.7816 367.209 42.5264 368.196 43.3693C369.18 44.2124 369.894 45.2171 370.333 46.3832C370.789 47.5494 370.971 48.9193 370.881 50.493C370.789 52.0528 370.486 53.8932 369.969 56.0149L368.082 63.5391C366.473 69.5386 363.704 73.7679 359.774 76.2267C355.846 78.6857 350.285 79.9151 343.093 79.9151H310.892Z" fill="#121212"/>
<g clip-path="url(#clip1_649_363)">
<path fill-rule="evenodd" clip-rule="evenodd" d="M310.122 9.69468H278.595L264.962 32.1828L270.561 9.69468H237.54L219.811 80.8469H252.832L259.318 54.8183L261.913 80.8469H295.798L295.727 80.0818C295.116 79.7265 294.537 79.337 294 78.9107C289.614 75.4388 289.033 70.1805 290.57 64.5257L293.301 53.5353L292.317 42.7627L298.974 32.0385C299.053 30.8961 299.25 29.725 299.55 28.5376L299.552 28.5295L301.348 21.249V21.245C302.58 16.3099 305.548 12.4123 310.122 9.69468ZM304.476 23.1737L304.772 21.9774C305.655 18.4374 307.575 15.5822 310.537 13.412L304.476 23.1737ZM295.313 75.5318L294.27 64.1372L293.985 65.2884C292.757 69.7822 293.2 73.1966 295.313 75.5318ZM25.9386 47.2319C25.1712 45.8038 25.2529 44.1103 26.1545 42.7514L48.1137 9.65253H17.7279L0 80.8049H50.9307C58.6832 80.8049 64.5015 79.3788 68.3855 76.5265C72.2693 73.6601 75.0381 68.8969 76.6917 62.237C78.1937 56.2374 78.2772 51.6849 76.942 48.5797C75.6071 45.4605 73.3465 43.5356 70.1604 42.805C73.832 42.0321 77.0179 40.3532 79.7185 37.7677C82.419 35.1684 84.3535 31.5293 85.5216 26.8504C86.2498 23.9139 86.5001 21.3637 86.2726 19.1999C86.0602 17.0361 85.2787 15.2447 83.9287 13.8256C82.5935 12.3924 80.6516 11.3386 78.1027 10.6642C75.5538 9.98975 72.4059 9.65253 68.6584 9.65253H62.3414L46.5085 67.2712C45.3667 71.4262 39.2628 72.0293 37.2003 68.1908L25.9386 47.2319ZM29.1479 44.4548L52.2371 9.65253H58.7161L43.1036 66.4687C42.7654 67.6998 40.9568 67.8786 40.3456 66.7412L29.0839 45.7823C28.8566 45.3592 28.8807 44.8574 29.1479 44.4548ZM219.129 65.1664L222.749 50.6453H189.795L187.633 59.2863C186.875 62.3353 185.577 63.8599 183.742 63.8599C182.907 63.8599 182.331 63.5436 182.012 62.9114C181.709 62.2651 181.777 61.0568 182.217 59.2863L189.499 30.1172C189.939 28.347 190.47 27.1456 191.092 26.5132C191.729 25.867 192.465 25.5438 193.3 25.5438C194.164 25.5438 194.764 25.8528 195.098 26.4712C195.431 27.0893 195.371 28.3047 194.915 30.1172L193.527 35.7234H226.479L228.893 25.9653C230.44 19.769 230.083 15.3641 227.823 12.7507C226.685 11.3597 224.842 10.341 222.293 9.69468C219.743 9.03429 216.611 8.7041 212.894 8.7041H181.398C177.893 8.7041 174.79 9.03429 172.09 9.69468C169.405 10.341 167.106 11.3737 165.194 12.7928C163.283 14.212 161.728 16.0034 160.529 18.1672C159.331 20.317 158.345 22.9163 157.571 25.9653L147.808 65.1664C146.488 70.4637 147.065 74.3978 149.538 76.9691C152.011 79.5264 156.638 80.8049 163.42 80.8049H194.915C198.496 80.8049 201.659 80.4957 204.405 79.8776C207.166 79.2592 209.541 78.3039 211.528 77.0111C213.516 75.7046 215.109 74.0817 216.307 72.1426C217.521 70.1897 218.462 67.8642 219.129 65.1664ZM76.6235 80.8469L94.3513 9.69468H157.093L152.86 26.7241H122.912L120.408 36.7141H147.558L143.325 53.7434H116.175L113.672 63.8177H143.621L139.365 80.8469H76.6235Z" fill="#121212"/>
<path d="M58.2034 0.659706L29.1482 44.4546C28.881 44.8571 28.8569 45.359 29.0842 45.782L40.3459 66.7409C40.957 67.8782 42.7657 67.6995 43.1039 66.4685L60.8974 1.7148C61.3156 0.193354 59.0909 -0.677917 58.2034 0.659706Z" fill="#121212"/>
<path d="M310.892 79.9151C304.079 79.9151 299.211 78.756 296.282 76.4376C293.353 74.1193 292.588 70.4028 293.983 65.2884L297.17 52.4742L296.282 43.3693L330.122 56.0149V57.7642C329.408 60.6446 329.962 62.0848 331.784 62.0848C332.648 62.0848 333.415 61.7616 334.081 61.1154C334.75 60.469 335.317 59.2114 335.789 57.3427C336.047 56.2889 336.199 55.4249 336.242 54.7503C336.304 54.0619 336.229 53.4998 336.017 53.0643C335.804 52.6147 335.431 52.2284 334.901 51.9052C334.386 51.568 333.619 51.2166 332.602 50.8514L312.939 43.4538C308.025 41.6131 304.908 39.6531 303.588 37.5734C302.312 35.4658 302.108 32.698 302.972 29.2696L304.769 21.9774C305.833 17.72 308.397 14.4532 312.461 12.177C316.543 9.9008 321.99 8.7627 328.803 8.7627H361.004C367.829 8.7627 372.709 9.9008 375.635 12.177C378.564 14.4532 379.498 17.72 378.434 21.9774L376.319 30.5342L362.097 30.0705H344.57C345.239 27.3447 342.615 25.0966 340.659 25.0966C339.96 25.0966 339.294 25.3284 338.656 25.7921C338.033 26.2558 337.602 26.9653 337.358 27.9206C337.238 28.4265 337.185 28.8411 337.2 29.1643C337.229 29.4875 337.374 29.7895 337.632 30.0705C337.889 30.3374 338.307 30.6395 338.884 30.9767C339.46 31.2999 340.302 31.6722 341.409 32.0937L364.417 41.1354C365.949 41.7816 367.209 42.5264 368.196 43.3693C369.18 44.2124 369.894 45.2171 370.333 46.3832C370.789 47.5494 370.971 48.9193 370.881 50.493C370.789 52.0528 370.486 53.8932 369.969 56.0149L368.082 63.5391C366.473 69.5386 363.704 73.7679 359.774 76.2267C355.846 78.6857 350.285 79.9151 343.093 79.9151H310.892Z" fill="#121212"/>
</g>
</g>
<defs>
<clipPath id="clip0_649_363">
<rect width="379" height="81" fill="white"/>
</clipPath>
<clipPath id="clip1_649_363">
<rect width="379" height="81" fill="white"/>
</clipPath>
</defs>
</svg>
