<svg width="33" height="32" viewBox="0 0 33 32" fill="none" xmlns="http://www.w3.org/2000/svg">
<path d="M1.2516 12.937C0.762357 12.4845 1.02812 11.6666 1.68986 11.5882L11.0665 10.476C11.3362 10.444 11.5704 10.2747 11.6842 10.028L15.6391 1.45389C15.9182 0.84878 16.7784 0.848664 17.0576 1.45378L21.0125 10.0279C21.1262 10.2745 21.359 10.4443 21.6287 10.4763L31.0058 11.5882C31.6675 11.6666 31.9325 12.4848 31.4433 12.9372L24.5117 19.3485C24.3123 19.5329 24.2235 19.8074 24.2765 20.0738L26.1161 29.335C26.246 29.9886 25.5504 30.495 24.9689 30.1695L16.7297 25.5564C16.4927 25.4237 16.2048 25.4243 15.9678 25.557L7.72772 30.1683C7.14624 30.4938 6.44936 29.9886 6.57923 29.335L8.41915 20.0744C8.47208 19.808 8.38353 19.5329 8.18413 19.3485L1.2516 12.937Z" stroke="#00C0FE" stroke-width="2" stroke-linecap="round" stroke-linejoin="round"/>
</svg>
