<svg width="19" height="19" viewBox="0 0 19 19" fill="none" xmlns="http://www.w3.org/2000/svg">
<g clip-path="url(#clip0_649_392)">
<path fill-rule="evenodd" clip-rule="evenodd" d="M19 9.5C19 14.7467 14.7467 19 9.5 19C4.2533 19 0 14.7467 0 9.5C0 4.2533 4.2533 0 9.5 0C14.7467 0 19 4.2533 19 9.5ZM9.84044 7.01332C8.91642 7.39765 7.06969 8.19311 4.30025 9.39971C3.85053 9.57855 3.61495 9.7535 3.59351 9.92457C3.55726 10.2137 3.91931 10.3275 4.41233 10.4826C4.47939 10.5036 4.54888 10.5255 4.62012 10.5486C5.10517 10.7063 5.75765 10.8908 6.09685 10.8981C6.40454 10.9048 6.74795 10.7779 7.12709 10.5176C9.71467 8.77088 11.0504 7.88802 11.1342 7.86898C11.1934 7.85556 11.2754 7.83867 11.3309 7.88804C11.3865 7.93742 11.381 8.03092 11.3751 8.056C11.3393 8.2089 9.9181 9.53016 9.18264 10.2139C8.95336 10.4271 8.79072 10.5783 8.75748 10.6128C8.683 10.6901 8.6071 10.7633 8.53415 10.8336C8.08352 11.2681 7.7456 11.5938 8.55286 12.1258C8.9408 12.3814 9.25123 12.5928 9.56093 12.8037C9.89914 13.0341 10.2365 13.2638 10.6729 13.5499C10.7841 13.6228 10.8903 13.6985 10.9938 13.7723C11.3874 14.0529 11.741 14.305 12.1779 14.2647C12.4317 14.2414 12.6939 14.0027 12.8271 13.2908C13.1418 11.6083 13.7605 7.96294 13.9034 6.46077C13.9159 6.32916 13.9002 6.16073 13.8875 6.08679C13.8749 6.01285 13.8484 5.9075 13.7523 5.82952C13.6385 5.73716 13.4628 5.71768 13.3842 5.71907C13.0269 5.72536 12.4787 5.91598 9.84044 7.01332Z" fill="white"/>
</g>
<defs>
<clipPath id="clip0_649_392">
<rect width="19" height="19" fill="white"/>
</clipPath>
</defs>
</svg>
