<svg width="116" height="27" viewBox="0 0 116 27" fill="none" xmlns="http://www.w3.org/2000/svg">
<g clip-path="url(#clip0_649_630)">
<path fill-rule="evenodd" clip-rule="evenodd" d="M94.9187 3.23156H85.2691L81.0967 10.7276L82.8102 3.23156H72.7036L67.2773 26.949H77.3839L79.3691 18.2728L80.1634 26.949H90.5343L90.5129 26.6939C90.3257 26.5755 90.1486 26.4457 89.9842 26.3036C88.6417 25.1463 88.4639 23.3935 88.9342 21.5086L89.7702 17.8451L89.4689 14.2542L91.5065 10.6795C91.5306 10.2987 91.591 9.90833 91.6829 9.51253L91.6836 9.50982L92.2331 7.083V7.08165C92.6101 5.43664 93.5185 4.13744 94.9187 3.23156ZM93.1905 7.72458L93.281 7.3258C93.5514 6.14579 94.1391 5.19408 95.0455 4.47066L93.1905 7.72458ZM90.3861 25.1773L90.0667 21.3791L89.9795 21.7628C89.6038 23.2607 89.7393 24.3989 90.3861 25.1773ZM7.93899 15.744C7.7041 15.2679 7.72913 14.7034 8.00507 14.2505L14.7261 3.21751H5.42594L0 26.935H15.5883C17.9611 26.935 19.7419 26.4596 20.9307 25.5088C22.1194 24.5534 22.9668 22.9656 23.4729 20.7457C23.9326 18.7458 23.9582 17.2283 23.5495 16.1932C23.141 15.1535 22.4491 14.5119 21.4739 14.2683C22.5977 14.0107 23.5728 13.4511 24.3993 12.5892C25.2259 11.7228 25.8179 10.5098 26.1755 8.95013C26.3984 7.9713 26.475 7.12124 26.4053 6.39997C26.3403 5.67871 26.1011 5.08156 25.6879 4.60852C25.2793 4.1308 24.6849 3.77953 23.9048 3.55473C23.1247 3.32992 22.1612 3.21751 21.0142 3.21751H19.0808L14.2348 22.4237C13.8853 23.8087 12.0171 24.0098 11.3858 22.7303L7.93899 15.744ZM8.92127 14.8183L15.9881 3.21751H17.9711L13.1927 22.1562C13.0891 22.5666 12.5356 22.6262 12.3485 22.2471L8.90167 15.2608C8.8321 15.1197 8.83948 14.9525 8.92127 14.8183ZM67.0685 21.7221L68.1763 16.8818H58.0903L57.4286 19.7621C57.1964 20.7784 56.7994 21.2866 56.2376 21.2866C55.9822 21.2866 55.8057 21.1812 55.7082 20.9705C55.6153 20.755 55.6362 20.3523 55.7709 19.7621L57.9998 10.0391C58.1344 9.44899 58.2969 9.04852 58.4873 8.83773C58.6824 8.62234 58.9076 8.51461 59.1629 8.51461C59.4276 8.51461 59.611 8.61761 59.7132 8.82373C59.8154 9.02978 59.7968 9.43491 59.6575 10.0391L59.2326 11.9078H69.3182L70.0569 8.65509C70.5305 6.58966 70.4212 5.12137 69.7295 4.25023C69.3813 3.78656 68.817 3.447 68.0368 3.23156C67.2565 3.01143 66.2977 2.90137 65.1601 2.90137H55.5201C54.4475 2.90137 53.4979 3.01143 52.6713 3.23156C51.8494 3.447 51.1459 3.79124 50.5608 4.26428C49.9758 4.73732 49.4998 5.33447 49.133 6.05573C48.7662 6.77233 48.4643 7.63877 48.2275 8.65509L45.2394 21.7221C44.8354 23.4879 45.0119 24.7993 45.7687 25.6564C46.5257 26.5088 47.9419 26.935 50.0176 26.935H59.6575C60.7533 26.935 61.7215 26.8319 62.562 26.6259C63.4071 26.4197 64.1338 26.1013 64.7421 25.6704C65.3505 25.2349 65.838 24.6939 66.2049 24.0475C66.5763 23.3966 66.8642 22.6214 67.0685 21.7221ZM23.4521 26.949L28.878 3.23156H48.0812L46.7857 8.90804H37.6194L36.8532 12.238H45.1628L43.8673 17.9145H35.5577L34.7915 21.2726H43.9578L42.6553 26.949H23.4521Z" fill="white"/>
<path d="M17.8142 0.219902L8.92131 14.8182C8.83953 14.9524 8.83215 15.1197 8.90172 15.2607L12.3486 22.247C12.5356 22.6261 13.0892 22.5665 13.1927 22.1562L18.6387 0.571599C18.7668 0.0644514 18.0858 -0.225972 17.8142 0.219902Z" fill="#00C0FE"/>
<path d="M95.1542 26.6384C93.069 26.6384 91.5789 26.252 90.6826 25.4792C89.7863 24.7064 89.5521 23.4676 89.9788 21.7628L90.9543 17.4914L90.6826 14.4564L101.04 18.6716V19.2547C100.821 20.2149 100.991 20.6949 101.549 20.6949C101.813 20.6949 102.048 20.5872 102.252 20.3718C102.456 20.1563 102.63 19.7371 102.774 19.1142C102.854 18.763 102.9 18.475 102.913 18.2501C102.932 18.0206 102.909 17.8333 102.844 17.6881C102.779 17.5382 102.665 17.4095 102.503 17.3017C102.345 17.1893 102.11 17.0722 101.799 16.9505L95.7808 14.4846C94.2766 13.871 93.3226 13.2177 92.9187 12.5245C92.5283 11.8219 92.4659 10.8993 92.7302 9.75654L93.2803 7.3258C93.6057 5.90666 94.3907 4.81773 95.6346 4.059C96.8838 3.30027 98.551 2.9209 100.636 2.9209H110.492C112.581 2.9209 114.074 3.30027 114.97 4.059C115.866 4.81773 116.152 5.90666 115.827 7.3258L115.179 10.1781L110.827 10.0235H105.462C105.667 9.1149 104.864 8.36553 104.265 8.36553C104.051 8.36553 103.847 8.44281 103.652 8.59737C103.461 8.75192 103.329 8.98843 103.255 9.30688C103.218 9.47551 103.202 9.61369 103.206 9.72142C103.215 9.82915 103.259 9.92984 103.339 10.0235C103.417 10.1125 103.545 10.2132 103.722 10.3256C103.898 10.4333 104.156 10.5574 104.495 10.6979L111.536 13.7118C112.005 13.9272 112.391 14.1755 112.693 14.4564C112.994 14.7375 113.213 15.0724 113.347 15.4611C113.487 15.8498 113.542 16.3064 113.515 16.831C113.487 17.3509 113.394 17.9644 113.236 18.6716L112.658 21.1797C112.166 23.1795 111.318 24.5893 110.115 25.4089C108.913 26.2286 107.211 26.6384 105.01 26.6384H95.1542Z" fill="#02C2FC"/>
<g clip-path="url(#clip1_649_630)">
<path fill-rule="evenodd" clip-rule="evenodd" d="M94.9187 3.23156H85.2691L81.0967 10.7276L82.8102 3.23156H72.7036L67.2773 26.949H77.3839L79.3691 18.2728L80.1634 26.949H90.5343L90.5129 26.6939C90.3257 26.5755 90.1486 26.4457 89.9842 26.3036C88.6417 25.1463 88.4639 23.3935 88.9342 21.5086L89.7702 17.8451L89.4689 14.2542L91.5065 10.6795C91.5306 10.2987 91.591 9.90833 91.6829 9.51253L91.6836 9.50982L92.2331 7.083V7.08165C92.6101 5.43664 93.5185 4.13744 94.9187 3.23156ZM93.1905 7.72458L93.281 7.3258C93.5514 6.14579 94.1391 5.19408 95.0455 4.47066L93.1905 7.72458ZM90.3861 25.1773L90.0667 21.3791L89.9795 21.7628C89.6038 23.2607 89.7393 24.3989 90.3861 25.1773ZM7.93899 15.744C7.7041 15.2679 7.72913 14.7034 8.00507 14.2505L14.7261 3.21751H5.42594L0 26.935H15.5883C17.9611 26.935 19.7419 26.4596 20.9307 25.5088C22.1194 24.5534 22.9668 22.9656 23.4729 20.7457C23.9326 18.7458 23.9582 17.2283 23.5495 16.1932C23.141 15.1535 22.4491 14.5119 21.4739 14.2683C22.5977 14.0107 23.5728 13.4511 24.3993 12.5892C25.2259 11.7228 25.8179 10.5098 26.1755 8.95013C26.3984 7.9713 26.475 7.12124 26.4053 6.39997C26.3403 5.67871 26.1011 5.08156 25.6879 4.60852C25.2793 4.1308 24.6849 3.77953 23.9048 3.55473C23.1247 3.32992 22.1612 3.21751 21.0142 3.21751H19.0808L14.2348 22.4237C13.8853 23.8087 12.0171 24.0098 11.3858 22.7303L7.93899 15.744ZM8.92127 14.8183L15.9881 3.21751H17.9711L13.1927 22.1562C13.0891 22.5666 12.5356 22.6262 12.3485 22.2471L8.90167 15.2608C8.8321 15.1197 8.83948 14.9525 8.92127 14.8183ZM67.0685 21.7221L68.1763 16.8818H58.0903L57.4286 19.7621C57.1964 20.7784 56.7994 21.2866 56.2376 21.2866C55.9822 21.2866 55.8057 21.1812 55.7082 20.9705C55.6153 20.755 55.6362 20.3523 55.7709 19.7621L57.9998 10.0391C58.1344 9.44899 58.2969 9.04852 58.4873 8.83773C58.6824 8.62234 58.9076 8.51461 59.1629 8.51461C59.4276 8.51461 59.611 8.61761 59.7132 8.82373C59.8154 9.02978 59.7968 9.43491 59.6575 10.0391L59.2326 11.9078H69.3182L70.0569 8.65509C70.5305 6.58966 70.4212 5.12137 69.7295 4.25023C69.3813 3.78656 68.817 3.447 68.0368 3.23156C67.2565 3.01143 66.2977 2.90137 65.1601 2.90137H55.5201C54.4475 2.90137 53.4979 3.01143 52.6713 3.23156C51.8494 3.447 51.1459 3.79124 50.5608 4.26428C49.9758 4.73732 49.4998 5.33447 49.133 6.05573C48.7662 6.77233 48.4643 7.63877 48.2275 8.65509L45.2394 21.7221C44.8354 23.4879 45.0119 24.7993 45.7687 25.6564C46.5257 26.5088 47.9419 26.935 50.0176 26.935H59.6575C60.7533 26.935 61.7215 26.8319 62.562 26.6259C63.4071 26.4197 64.1338 26.1013 64.7421 25.6704C65.3505 25.2349 65.838 24.6939 66.2049 24.0475C66.5763 23.3966 66.8642 22.6214 67.0685 21.7221ZM23.4521 26.949L28.878 3.23156H48.0812L46.7857 8.90804H37.6194L36.8532 12.238H45.1628L43.8673 17.9145H35.5577L34.7915 21.2726H43.9578L42.6553 26.949H23.4521Z" fill="white"/>
<path d="M17.8142 0.219902L8.92131 14.8182C8.83953 14.9524 8.83215 15.1197 8.90172 15.2607L12.3486 22.247C12.5356 22.6261 13.0892 22.5665 13.1927 22.1562L18.6387 0.571599C18.7668 0.0644514 18.0858 -0.225972 17.8142 0.219902Z" fill="#00C0FE"/>
<path d="M95.1542 26.6384C93.069 26.6384 91.5789 26.252 90.6826 25.4792C89.7863 24.7064 89.5521 23.4676 89.9788 21.7628L90.9543 17.4914L90.6826 14.4564L101.04 18.6716V19.2547C100.821 20.2149 100.991 20.6949 101.549 20.6949C101.813 20.6949 102.048 20.5872 102.252 20.3718C102.456 20.1563 102.63 19.7371 102.774 19.1142C102.854 18.763 102.9 18.475 102.913 18.2501C102.932 18.0206 102.909 17.8333 102.844 17.6881C102.779 17.5382 102.665 17.4095 102.503 17.3017C102.345 17.1893 102.11 17.0722 101.799 16.9505L95.7808 14.4846C94.2766 13.871 93.3226 13.2177 92.9187 12.5245C92.5283 11.8219 92.4659 10.8993 92.7302 9.75654L93.2803 7.3258C93.6057 5.90666 94.3907 4.81773 95.6346 4.059C96.8838 3.30027 98.551 2.9209 100.636 2.9209H110.492C112.581 2.9209 114.074 3.30027 114.97 4.059C115.866 4.81773 116.152 5.90666 115.827 7.3258L115.179 10.1781L110.827 10.0235H105.462C105.667 9.1149 104.864 8.36553 104.265 8.36553C104.051 8.36553 103.847 8.44281 103.652 8.59737C103.461 8.75193 103.329 8.98843 103.255 9.30688C103.218 9.47551 103.202 9.61369 103.206 9.72142C103.215 9.82915 103.259 9.92984 103.339 10.0235C103.417 10.1125 103.545 10.2132 103.722 10.3256C103.898 10.4333 104.156 10.5574 104.495 10.6979L111.536 13.7118C112.005 13.9272 112.391 14.1755 112.693 14.4564C112.994 14.7375 113.213 15.0724 113.347 15.4611C113.487 15.8498 113.542 16.3064 113.515 16.831C113.487 17.3509 113.394 17.9644 113.236 18.6716L112.658 21.1797C112.166 23.1795 111.318 24.5893 110.115 25.4089C108.913 26.2286 107.211 26.6384 105.01 26.6384H95.1542Z" fill="white"/>
</g>
</g>
<defs>
<clipPath id="clip0_649_630">
<rect width="116" height="27" fill="white"/>
</clipPath>
<clipPath id="clip1_649_630">
<rect width="116" height="27" fill="white"/>
</clipPath>
</defs>
</svg>
